<svg width="54" height="57" viewBox="0 0 54 57" fill="none" xmlns="http://www.w3.org/2000/svg">
<path d="M9 27.5C9 19.0147 9 14.7721 11.636 12.136C14.2721 9.5 18.5147 9.5 27 9.5V9.5C35.4853 9.5 39.7279 9.5 42.364 12.136C45 14.7721 45 19.0147 45 27.5V43.5C45 45.3856 45 46.3284 44.4142 46.9142C43.8284 47.5 42.8856 47.5 41 47.5H27C18.5147 47.5 14.2721 47.5 11.636 44.864C9 42.2279 9 37.9853 9 29.5V27.5Z" stroke="#33363F" stroke-width="2"/>
<path d="M20.25 26.125L33.75 26.125" stroke="#33363F" stroke-width="2" stroke-linecap="round" stroke-linejoin="round"/>
<path d="M27 35.625H33.75" stroke="#33363F" stroke-width="2" stroke-linecap="round" stroke-linejoin="round"/>
</svg>
