<svg width="100" height="103" viewBox="0 0 100 103" fill="none" xmlns="http://www.w3.org/2000/svg">
<path d="M75 94.417C81.9036 94.417 87.5 88.6527 87.5 81.542C87.5 74.4313 81.9036 68.667 75 68.667C68.0964 68.667 62.5 74.4313 62.5 81.542C62.5 88.6527 68.0964 94.417 75 94.417Z" stroke="black" stroke-width="2" stroke-linecap="round" stroke-linejoin="round"/>
<path d="M25 64.375C31.9036 64.375 37.5 58.6107 37.5 51.5C37.5 44.3893 31.9036 38.625 25 38.625C18.0964 38.625 12.5 44.3893 12.5 51.5C12.5 58.6107 18.0964 64.375 25 64.375Z" stroke="black" stroke-width="2" stroke-linecap="round" stroke-linejoin="round"/>
<path d="M35.7916 57.9805L64.25 75.0613" stroke="black" stroke-width="2" stroke-linecap="round" stroke-linejoin="round"/>
<path d="M75 34.333C81.9036 34.333 87.5 28.5687 87.5 21.458C87.5 14.3473 81.9036 8.58301 75 8.58301C68.0964 8.58301 62.5 14.3473 62.5 21.458C62.5 28.5687 68.0964 34.333 75 34.333Z" stroke="black" stroke-width="2" stroke-linecap="round" stroke-linejoin="round"/>
<path d="M64.2083 27.9385L35.7916 45.0193" stroke="black" stroke-width="2" stroke-linecap="round" stroke-linejoin="round"/>
</svg>
